<?xml version="1.0" ?><svg data-name="Layer 1" id="Layer_1" viewBox="0 0 70 70" xmlns="http://www.w3.org/2000/svg" xmlns:xlink="http://www.w3.org/1999/xlink"><defs><style>.cls-1,.cls-8{fill:none;}.cls-2{fill:#929293;}.cls-3{fill:#a3a6a8;}.cls-4{fill:#dee1e5;}.cls-5{fill:#fff;}.cls-6{fill:#ff7e7e;}.cls-7{fill:#ffd41f;}.cls-8{stroke:#1a1a1a;stroke-linecap:round;stroke-linejoin:round;stroke-width:1.5px;}.cls-9{fill:url(#New_Pattern_Swatch_2);}.cls-10{fill:url(#New_Pattern_Swatch_3);}.cls-11{fill:url(#New_Pattern_Swatch_3-3);}.cls-12{fill:url(#New_Pattern_Swatch_2-3);}.cls-13{fill:url(#New_Pattern_Swatch_3-5);}.cls-14{fill:url(#New_Pattern_Swatch_3-7);}.cls-15{fill:url(#New_Pattern_Swatch_16);}.cls-16{fill:url(#New_Pattern_Swatch_15);}.cls-17{fill:url(#New_Pattern_Swatch_5);}</style><pattern data-name="New Pattern Swatch 2" height="23.5" id="New_Pattern_Swatch_2" patternTransform="translate(-95.37 -115.37) scale(1.27 1.44)" patternUnits="userSpaceOnUse" viewBox="0 0 23.5 23.5" width="23.5"><rect class="cls-1" height="23.5" width="23.5"/><rect class="cls-4" height="23.5" width="23.5"/></pattern><pattern data-name="New Pattern Swatch 3" height="23.5" id="New_Pattern_Swatch_3" patternTransform="translate(-95.37 -115.37) scale(1.27 1.44)" patternUnits="userSpaceOnUse" viewBox="0 0 23.5 23.5" width="23.5"><rect class="cls-1" height="23.5" width="23.5"/><rect class="cls-5" height="23.5" width="23.5"/></pattern><pattern data-name="New Pattern Swatch 3" height="23.5" id="New_Pattern_Swatch_3-3" patternTransform="translate(-25.46 -53.39) scale(0.98 1.11)" patternUnits="userSpaceOnUse" viewBox="0 0 23.5 23.5" width="23.5"><rect class="cls-1" height="23.5" width="23.5"/><rect class="cls-5" height="23.5" width="23.5"/></pattern><pattern data-name="New Pattern Swatch 2" height="23.5" id="New_Pattern_Swatch_2-3" patternTransform="translate(-68.17 -115.37) scale(1.27 1.44)" patternUnits="userSpaceOnUse" viewBox="0 0 23.5 23.5" width="23.5"><rect class="cls-1" height="23.5" width="23.5"/><rect class="cls-4" height="23.5" width="23.5"/></pattern><pattern data-name="New Pattern Swatch 3" height="23.5" id="New_Pattern_Swatch_3-5" patternTransform="translate(-68.17 -115.37) scale(1.27 1.44)" patternUnits="userSpaceOnUse" viewBox="0 0 23.5 23.5" width="23.5"><rect class="cls-1" height="23.5" width="23.5"/><rect class="cls-5" height="23.5" width="23.5"/></pattern><pattern data-name="New Pattern Swatch 3" height="23.5" id="New_Pattern_Swatch_3-7" patternTransform="matrix(-0.98, 0, 0, 1.11, 38.96, -53.29)" patternUnits="userSpaceOnUse" viewBox="0 0 23.5 23.5" width="23.5"><rect class="cls-1" height="23.5" width="23.5"/><rect class="cls-5" height="23.5" width="23.5"/></pattern><pattern data-name="New Pattern Swatch 16" height="23.5" id="New_Pattern_Swatch_16" patternTransform="translate(15.47 26.21) rotate(-180) scale(1.15)" patternUnits="userSpaceOnUse" viewBox="0 0 23.5 23.5" width="23.5"><rect class="cls-1" height="23.5" width="23.5"/><rect class="cls-3" height="23.5" width="23.5"/></pattern><pattern data-name="New Pattern Swatch 15" height="23.5" id="New_Pattern_Swatch_15" patternTransform="translate(15.47 26.21) rotate(-180) scale(1.15)" patternUnits="userSpaceOnUse" viewBox="0 0 23.5 23.5" width="23.5"><rect class="cls-1" height="23.5" width="23.5"/><rect class="cls-2" height="23.5" width="23.5"/></pattern><pattern data-name="New Pattern Swatch 5" height="23.5" id="New_Pattern_Swatch_5" patternTransform="translate(14.4 -5.67)" patternUnits="userSpaceOnUse" viewBox="0 0 23.5 23.5" width="23.5"><rect class="cls-1" height="23.5" width="23.5"/><rect class="cls-6" height="23.5" width="23.5"/></pattern></defs><title/><path class="cls-7" d="M67,35A32,32,0,1,1,50.28,6.88,32,32,0,0,1,67,35Z"/><circle class="cls-8" cx="35" cy="35" r="32"/><path class="cls-9" d="M30,32.07a10.79,10.79,0,0,1-.14,1.72c0,.18-.06.37-.1.55a25.8,25.8,0,0,0-5.68-1.9,10.72,10.72,0,0,0,2.34-6.8,11,11,0,0,0-.14-1.74h0A9.87,9.87,0,0,1,27.43,25,10.71,10.71,0,0,1,30,32.07Z"/><path class="cls-10" d="M26.39,25.64a10.72,10.72,0,0,1-2.34,6.8,15.56,15.56,0,0,0-11.29,1.7l-.41-.29a.08.08,0,0,1,0-.06,12.22,12.22,0,0,1-.12-1.72,11.22,11.22,0,0,1,.69-3.92A9.94,9.94,0,0,1,14.8,25a10.34,10.34,0,0,1,1.31-1.25,6,6,0,0,1,.74-.5A8,8,0,0,1,21.08,22c.21,0,.41,0,.62,0a.13.13,0,0,1,.12,0c.23,0,.46,0,.68.1a5,5,0,0,1,.67.15s0,0,0,0a8,8,0,0,1,1.88.8l.59.37c.19.13.38.28.56.43A11.07,11.07,0,0,1,26.39,25.64Z"/><path class="cls-8" d="M30,32.07a10.79,10.79,0,0,1-.14,1.72c0,.18,0,.37-.09.55h0a25.8,25.8,0,0,0-5.68-1.9,15.56,15.56,0,0,0-11.29,1.7,3,3,0,0,0-.34.2c0-.17-.06-.33-.07-.49a.08.08,0,0,1,0-.06,12.09,12.09,0,0,1-.14-1.72,11.18,11.18,0,0,1,.71-3.92A9.94,9.94,0,0,1,14.8,25a8.15,8.15,0,0,1,1.31-1.25,6,6,0,0,1,.74-.5A7.89,7.89,0,0,1,21.08,22a4.32,4.32,0,0,1,.62.05.13.13,0,0,1,.12,0c.23,0,.46,0,.68.1a5,5,0,0,1,.67.15s0,0,0,0a7.6,7.6,0,0,1,1.88.8l.59.37c.19.13.38.28.56.43h0A9.77,9.77,0,0,1,27.43,25,10.71,10.71,0,0,1,30,32.07Z"/><path d="M24.82,32.61a4.63,4.63,0,0,0,1.54-3.5,4.24,4.24,0,0,0-3.95-4.48,4.24,4.24,0,0,0-3.95,4.48,4.82,4.82,0,0,0,1,3"/><ellipse class="cls-11" cx="24.28" cy="27.64" rx="0.84" ry="0.98"/><path class="cls-12" d="M57.17,32.07A10.79,10.79,0,0,1,57,33.79c0,.18-.06.37-.1.55a25.8,25.8,0,0,0-5.68-1.9,10.72,10.72,0,0,0,2.34-6.8,11,11,0,0,0-.14-1.74h0A9.87,9.87,0,0,1,54.63,25,10.71,10.71,0,0,1,57.17,32.07Z"/><path class="cls-13" d="M53.59,25.64a10.72,10.72,0,0,1-2.34,6.8A15.56,15.56,0,0,0,40,34.14l-.41-.29a.08.08,0,0,1,0-.06,12.22,12.22,0,0,1-.12-1.72,11.22,11.22,0,0,1,.69-3.92A9.94,9.94,0,0,1,42,25a10.34,10.34,0,0,1,1.31-1.25,6,6,0,0,1,.74-.5A8,8,0,0,1,48.28,22c.21,0,.41,0,.62,0A.13.13,0,0,1,49,22c.23,0,.46,0,.68.1a5,5,0,0,1,.67.15s0,0,.05,0a8,8,0,0,1,1.88.8l.59.37c.19.13.38.28.56.43A11.07,11.07,0,0,1,53.59,25.64Z"/><path class="cls-8" d="M57.17,32.07A10.79,10.79,0,0,1,57,33.79c0,.18-.05.37-.09.55h0a25.8,25.8,0,0,0-5.68-1.9A15.56,15.56,0,0,0,40,34.14a3,3,0,0,0-.34.2c0-.17-.06-.33-.07-.49a.08.08,0,0,1,0-.06,12.09,12.09,0,0,1-.14-1.72,11.18,11.18,0,0,1,.71-3.92A9.94,9.94,0,0,1,42,25a8.15,8.15,0,0,1,1.31-1.25,6,6,0,0,1,.74-.5A7.89,7.89,0,0,1,48.28,22a4.32,4.32,0,0,1,.62.05A.13.13,0,0,1,49,22c.23,0,.46,0,.68.1a5,5,0,0,1,.67.15s0,0,.05,0a7.6,7.6,0,0,1,1.88.8l.59.37c.19.13.38.28.56.43h0A9.77,9.77,0,0,1,54.63,25,10.71,10.71,0,0,1,57.17,32.07Z"/><path d="M43.84,32.72a4.64,4.64,0,0,1-1.54-3.5,4.24,4.24,0,0,1,4-4.48,4.24,4.24,0,0,1,4,4.48,5,5,0,0,1-.93,2.88"/><ellipse class="cls-14" cx="44.38" cy="27.75" rx="0.84" ry="0.98"/><path class="cls-15" d="M20.25,44.58A20.4,20.4,0,0,0,35,50.45a21.7,21.7,0,0,0,3.74-.31,37.09,37.09,0,0,1-10.58,5.79A14.9,14.9,0,0,1,20.25,44.58Z"/><path class="cls-16" d="M28.17,55.93a37.09,37.09,0,0,0,10.58-5.79h0a19.63,19.63,0,0,0,11-5.55A14.91,14.91,0,0,1,35,57.6,14.72,14.72,0,0,1,28.17,55.93Z"/><path class="cls-8" d="M24.33,47.73l-1.68,3.06a2.13,2.13,0,0,0,0,.25,14.83,14.83,0,0,1-2.44-6.46A16.94,16.94,0,0,0,24.33,47.73Z"/><path class="cls-8" d="M49.76,44.58A14.88,14.88,0,0,1,30,56.72l.56-.06,1.67-6.39a21.78,21.78,0,0,0,2.82.18A20.37,20.37,0,0,0,49.76,44.58Z"/><path class="cls-17" d="M33,46.8a3.92,3.92,0,0,1-.08.76h0s-2.36,9.09-2.36,9.09l-.56.06a14.86,14.86,0,0,1-5.2-3.24A14.34,14.34,0,0,1,22.68,51a2.13,2.13,0,0,1,0-.25L25.83,45A3.81,3.81,0,0,1,33,46.8Z"/><path class="cls-8" d="M33,46.8a4,4,0,0,1-.11.9l-.67,2.57-1.67,6.39-.56.06A15,15,0,0,1,22.68,51a2.13,2.13,0,0,1,0-.25l1.68-3.06L25.83,45A3.81,3.81,0,0,1,33,46.8Z"/></svg>